<svg xmlns="http://www.w3.org/2000/svg" viewBox="0 0 116.03 96.69"><defs><style>.cls-1{fill:#010101;}</style></defs><g id="Layer_2" data-name="Layer 2"><g id="Capa_1" data-name="Capa 1"><path class="cls-1" d="M106.36,14.5H82.19V9.67A9.68,9.68,0,0,0,72.52,0h-29a9.68,9.68,0,0,0-9.67,9.67V14.5H9.67A9.68,9.68,0,0,0,0,24.17V38.68a9.68,9.68,0,0,0,9.67,9.67H48.35V45.93a2.41,2.41,0,0,1,2.41-2.42H65.27a2.42,2.42,0,0,1,2.42,2.42v2.42h38.67A9.68,9.68,0,0,0,116,38.68V24.17A9.68,9.68,0,0,0,106.36,14.5Zm-62.85,0V9.67h29V14.5Z"/><path class="cls-1" d="M114.69,51a2.41,2.41,0,0,0-2.53.23,9.56,9.56,0,0,1-5.8,2H67.69v7.25a2.42,2.42,0,0,1-2.42,2.42H50.76a2.41,2.41,0,0,1-2.41-2.42V53.18H9.67a9.53,9.53,0,0,1-5.79-2A2.41,2.41,0,0,0,1.34,51,2.4,2.4,0,0,0,0,53.12V87a9.68,9.68,0,0,0,9.67,9.67h96.69A9.67,9.67,0,0,0,116,87V53.12A2.4,2.4,0,0,0,114.69,51Z"/></g></g></svg>