<svg xmlns="http://www.w3.org/2000/svg" xmlns:xlink="http://www.w3.org/1999/xlink" viewBox="0 0 174.79 194.23"><defs><style>.cls-1{fill:none;}.cls-2{clip-path:url(#clip-path);}</style><clipPath id="clip-path"><rect class="cls-1" width="174.88" height="194.23"/></clipPath></defs><g id="Layer_2" data-name="Layer 2"><g id="Layer_1-2" data-name="Layer 1"><g class="cls-2"><path d="M173.4,26.11l-8.3-7.31,8.3-7.31a4.1,4.1,0,0,0-2.71-7.17H136.34V2.85a2.85,2.85,0,1,0-5.69,0V41.24L107.27,53.93a9.25,9.25,0,0,0-.92-3l-3.3-6.43A9,9,0,0,0,91,40.61l-2.55,1.3A9,9,0,0,0,84.49,54l3.3,6.43A8.9,8.9,0,0,0,91,64c-1.75,2.36-2.58,5.25-3.43,8.26L87,74.4a2.85,2.85,0,0,0,2,3.52,3,3,0,0,0,.77.11A2.85,2.85,0,0,0,92.46,76l.62-2.17c1.24-4.4,2-6.75,4.45-8.08l4.37-2.37.54-.28a5.39,5.39,0,0,0,.52-.3l31.16-16.92a12,12,0,0,1-5.74,9.67L108.11,67.82l-.07,0-6.31,3.83a2.85,2.85,0,0,0,2.72,5L99.67,91.15l-3.5,1.44-9.52,3.9L89.4,86.8a2.85,2.85,0,1,0-5.48-1.55l-4.34,15.31a3.34,3.34,0,0,0-.1.62L78.35,122a9.94,9.94,0,0,1-.23,3.07L65.53,151.56H56.38a9.73,9.73,0,0,0-9.72,9.72v8.22a9.69,9.69,0,0,0-4-.88H19.4a9.73,9.73,0,0,0-9.72,9.72v10.2H2.85a2.85,2.85,0,1,0,0,5.69H170.69a2.85,2.85,0,0,0,0-5.69h-7.41V115.16a9.73,9.73,0,0,0-9.71-9.72H136.34V55.78a17.72,17.72,0,0,0,2.86-15.21,2.85,2.85,0,0,0-1.63-1.87,2.89,2.89,0,0,0-1.23-.22v-5.2h34.35a4.1,4.1,0,0,0,2.71-7.17Zm-84,22.79A3.27,3.27,0,0,1,91,47l2.55-1.31a3.34,3.34,0,0,1,1.5-.36A3.3,3.3,0,0,1,98,47.11l3.3,6.43a3.3,3.3,0,0,1-1.1,4.24l-.92.51-2,1a3.31,3.31,0,0,1-4.45-1.44l-3.29-6.43a3.25,3.25,0,0,1-.2-2.52ZM83.64,152.44a9.66,9.66,0,0,0-3.13-.83l3.13-4.15ZM97.15,129.5a10.63,10.63,0,0,0,2-5.1c.08-.37,1.49-8,1.49-8s1.33.83,1.46.89a.3.3,0,0,1,.18.25l1.55,15.74H94.34ZM114,113.79l-2.41,19.44h-2L108,116.94a6,6,0,0,0-3.36-4.81l-2.86-1.82,1.91-10.57s8,9.55,8.22,9.79c1.66,2.16,2.23,3,2.08,4.26ZM83.24,127.57a15.45,15.45,0,0,0,.79-5.29l1-19L98.23,97.9l-2.39,13.25s0,.07,0,.11l-2,11c-.26,1.14-.48,2.86-1.19,3.79L73.42,151.56H71.83ZM15.37,178.34a4,4,0,0,1,4-4H42.63a4,4,0,0,1,4,4v10.2H15.37Zm37,0V161.28a4,4,0,0,1,4-4H79.61a4,4,0,0,1,4,4v27.26H52.35v-10.2Zm105.24-63.18v73.38H126.31V171.47a2.85,2.85,0,0,0-5.7,0v17.07H89.33V143a4,4,0,0,1,4-4h23.24a4,4,0,0,1,4,4v14.27a2.85,2.85,0,0,0,5.7,0V115.16a4,4,0,0,1,4-4h23.23a4,4,0,0,1,4,4Zm-27.26-9.72a9.73,9.73,0,0,0-9.72,9.72v19a9.61,9.61,0,0,0-3.3-.84l2.33-18.78c.45-3.66-1.42-6.09-3.22-8.43-.19-.25-11.26-13.39-11.26-13.39L112,72.15l18.7-11.36v44.65Zm6-77.85V10h30.12L160,15.73a4.1,4.1,0,0,0,0,6.15l6.49,5.71Z"/></g></g></g></svg>