<svg xmlns="http://www.w3.org/2000/svg" viewBox="0 0 384 512"><g id="Layer_2" data-name="Layer 2"><g id="Layer_1-2" data-name="Layer 1"><path d="M166.79,354.31l-6.73,60.51a10.69,10.69,0,0,0,10.61,11.85h42.66a10.69,10.69,0,0,0,10.61-11.85l-6.73-60.51A42.19,42.19,0,0,0,234.67,320a42.67,42.67,0,1,0-85.34,0A42.19,42.19,0,0,0,166.79,354.31ZM192,298.67a21.26,21.26,0,0,1,9.21,40.46,10.67,10.67,0,0,0-6,10.78l6.17,55.42H182.58l6.17-55.42a10.67,10.67,0,0,0-6-10.78A21.26,21.26,0,0,1,192,298.67Z"/><path d="M373.33,192h-32V149.33C341.33,67,274.34,0,192,0S42.67,67,42.67,149.33V192h-32A10.66,10.66,0,0,0,0,202.67V469.33A42.72,42.72,0,0,0,42.67,512H341.33A42.72,42.72,0,0,0,384,469.33V202.67A10.66,10.66,0,0,0,373.33,192ZM64,149.33a128,128,0,0,1,256,0V192H298.67V149.33a106.67,106.67,0,0,0-213.34,0V192H64ZM277.33,192H106.67V149.33a85.33,85.33,0,1,1,170.66,0Zm85.34,277.33a21.37,21.37,0,0,1-21.34,21.34H42.67a21.37,21.37,0,0,1-21.34-21.34v-256H362.67Z"/></g></g></svg>