<svg xmlns="http://www.w3.org/2000/svg" viewBox="0 0 81.49 81.49"><defs><style>.cls-1{fill:#010101;}</style></defs><g id="Layer_2" data-name="Layer 2"><g id="Capa_1" data-name="Capa 1"><path class="cls-1" d="M15.35,37.93a3,3,0,0,1-3-2.71,20.58,20.58,0,0,1,5.88-16.68A3,3,0,0,1,22.5,22.8a14.55,14.55,0,0,0-4.15,11.82,3,3,0,0,1-2.7,3.3Z"/><path class="cls-1" d="M34.42,68.84A34.42,34.42,0,1,1,68.84,34.42,34.46,34.46,0,0,1,34.42,68.84ZM34.42,6a28.4,28.4,0,1,0,28.4,28.4A28.43,28.43,0,0,0,34.42,6Z"/><path class="cls-1" d="M78.48,81.49a3,3,0,0,1-2.13-.89L54.47,58.73a3,3,0,1,1,4.26-4.26L80.6,76.35a3,3,0,0,1-2.12,5.14Z"/></g></g></svg>