<svg xmlns="http://www.w3.org/2000/svg" xmlns:xlink="http://www.w3.org/1999/xlink" viewBox="0 0 353.63 192.45"><defs><style>.cls-1{fill:none;}.cls-2{clip-path:url(#clip-path);}</style><clipPath id="clip-path" transform="translate(0)"><rect class="cls-1" width="354" height="193"/></clipPath></defs><g id="Layer_2" data-name="Layer 2"><g id="Layer_1-2" data-name="Layer 1"><g class="cls-2"><path d="M176.82,192.45c-39.77,0-82.57-15.55-123.77-45-30.8-22-49.82-43.79-50.61-44.71a10,10,0,0,1,0-13.09C3.23,88.76,22.25,67,53.05,45c41.2-29.43,84-45,123.77-45s82.56,15.55,123.77,45c30.8,22,49.81,43.78,50.6,44.7a10,10,0,0,1,0,13.09c-.79.92-19.8,22.71-50.6,44.71-41.21,29.42-84,45-123.77,45ZM23.71,96.23a315.49,315.49,0,0,0,41.36,35.25c26.26,18.69,67,41,111.75,41s85.48-22.28,111.75-41a315.16,315.16,0,0,0,41.35-35.25A315.83,315.83,0,0,0,288.57,61c-26.27-18.69-67-41-111.75-41S91.33,42.28,65.07,61A315.39,315.39,0,0,0,23.71,96.23Z" transform="translate(0)"/></g><path d="M176.82,158.23A62,62,0,1,1,217.66,49.58a10,10,0,1,1-13.18,15,42,42,0,1,0,14.34,31.61,10,10,0,0,1,20,0,62.08,62.08,0,0,1-62,62Z" transform="translate(0)"/><path d="M176.82,116.23a20,20,0,1,1,20-20,20,20,0,0,1-20,20Z" transform="translate(0)"/></g></g></svg>