<svg xmlns="http://www.w3.org/2000/svg" viewBox="0 0 97.93 89.79"><g id="Layer_2" data-name="Layer 2"><g id="Layer_1-2" data-name="Layer 1"><path d="M92.83,79.6H90.31a15.22,15.22,0,0,1,0-12.35h2.53a5.1,5.1,0,1,0,0-10.2H82.68a8.34,8.34,0,0,0,2.08-5.51v-16a8.39,8.39,0,0,0-8.38-8.39H72.25a5.11,5.11,0,0,0,.55-2.31,5.19,5.19,0,0,0-5.19-5.19H66.2a11.87,11.87,0,0,1,0-9.3h1.42A5.19,5.19,0,1,0,67.61,0H19.22A15,15,0,0,0,8.6,25.64a14.6,14.6,0,0,0,1.81,1.54H9.3a5.1,5.1,0,1,0,0,10.2h2.52a15.2,15.2,0,0,1,0,12.34H9.3a5.11,5.11,0,0,0-4.2,8A8.41,8.41,0,0,0,0,65.44v16a8.38,8.38,0,0,0,8.38,8.38H92.83a5.1,5.1,0,1,0,0-10.19Zm0-19.68a2.23,2.23,0,1,1,0,4.46H66.94a1.44,1.44,0,1,0,0,2.87H87.23a18.76,18.76,0,0,0-1,4.74s-.57,2.84,1,7.61H10.61a.42.42,0,0,1-.41-.42V67.67a.42.42,0,0,1,.41-.42H24.82V72a2,2,0,0,0,1,2.18,2.06,2.06,0,0,0,2.39-.58l0,0,4-3.83,4,3.83,0,0a2.45,2.45,0,0,0,1.65.75,1.65,1.65,0,0,0,.75-.18,2,2,0,0,0,1-2.17V67.25H59.88a1.44,1.44,0,0,0,0-2.87H39.72V59.92Zm-76.9-17.8a18.76,18.76,0,0,0-1-4.74H74.15a.42.42,0,0,1,.41.42V49.31a.42.42,0,0,1-.41.42H39.73V45h10a1.44,1.44,0,0,0,0-2.87Zm8.89,7.61H14.89a18.76,18.76,0,0,0,1-4.74h8.89Zm12-4.74V70.12l-3.59-3.43a1.45,1.45,0,0,0-2,0l-3.59,3.43V45ZM7.06,15A12.17,12.17,0,0,1,19.22,2.87H67.61a2.32,2.32,0,1,1,0,4.64H41.17a1.44,1.44,0,0,0,0,2.87h22a14.58,14.58,0,0,0,0,9.3H19.22a4.65,4.65,0,1,1,0-9.3H34.11a1.44,1.44,0,0,0,0-2.87H19.22a7.52,7.52,0,0,0,0,15H67.61a2.32,2.32,0,1,1,0,4.64H19.22A12.17,12.17,0,0,1,7.06,15ZM9.3,34.51a2.23,2.23,0,1,1,0-4.46H76.38a5.52,5.52,0,0,1,5.51,5.52v16a5.51,5.51,0,0,1-5.51,5.51H39.72V52.59H74.15a3.28,3.28,0,0,0,3.28-3.28V37.8a3.29,3.29,0,0,0-3.28-3.29Zm0,18.08H24.82v4.46H9.3a2.23,2.23,0,1,1,0-4.46ZM92.83,86.93H8.38a5.52,5.52,0,0,1-5.51-5.52v-16a5.52,5.52,0,0,1,5.51-5.52H24.82v4.46H10.61a3.29,3.29,0,0,0-3.28,3.29V79.18a3.29,3.29,0,0,0,3.28,3.29H92.83a2.23,2.23,0,0,1,0,4.46Z"/></g></g></svg>