<svg xmlns="http://www.w3.org/2000/svg" viewBox="0 0 78.75 71.23"><g id="Layer_2" data-name="Layer 2"><g id="Layer_1-2" data-name="Layer 1"><rect x="35.91" y="26.76" width="2.31" height="2.31"/><rect x="40.53" y="26.76" width="2.31" height="2.31"/><rect x="71.83" y="19.61" width="2.31" height="2.31"/><rect x="62.6" y="19.61" width="6.92" height="2.31"/><path d="M75.29,15H61.52V10.38h-2.3V8.07A8.09,8.09,0,0,0,51.14,0H27.61a8.09,8.09,0,0,0-8.08,8.07v2.31h-2.3V15H3.46A3.46,3.46,0,0,0,0,18.46v5.76H2.31V18.46A1.15,1.15,0,0,1,3.46,17.3H75.29a1.15,1.15,0,0,1,1.15,1.16V32.28L70.2,38.53H64.91V33.92H53.37v4.61h-28V33.92H13.84v4.61H8.55L2.31,32.28V26.53H0V67.77a3.46,3.46,0,0,0,3.46,3.46H67.21V68.92H3.46a1.14,1.14,0,0,1-1.15-1.15V62H76.44v5.77a1.14,1.14,0,0,1-1.15,1.15H69.52v2.31h5.77a3.46,3.46,0,0,0,3.46-3.46V18.46A3.46,3.46,0,0,0,75.29,15ZM59.22,15H52.29V12.69h6.93ZM26.46,10.38V8.07a1.16,1.16,0,0,1,1.15-1.15H51.14a1.16,1.16,0,0,1,1.15,1.15v2.31H50V15H28.76V10.38ZM21.84,8.07a5.77,5.77,0,0,1,5.77-5.76H51.14a5.77,5.77,0,0,1,5.77,5.76v2.31H54.6V8.07a3.47,3.47,0,0,0-3.46-3.46H27.61a3.47,3.47,0,0,0-3.46,3.46v2.31H21.84Zm-2.31,4.62h6.93V15H19.53ZM55.68,36.22H62.6v6.21l-3.46,1.73-3.46-1.73Zm-39.53,0h6.92v6.21l-3.46,1.73-3.46-1.73ZM7.6,40.84h6.24v3l5.77,2.88,5.77-2.88v-3h28v3l5.77,2.88,5.77-2.88v-3h6.24l5.29-5.29V55.08H2.31V35.55ZM2.31,59.7V57.39H76.44V59.7Z"/></g></g></svg>