<svg xmlns="http://www.w3.org/2000/svg" viewBox="0 0 188.31 188.31"><defs><style>.cls-1{fill:#010101;}</style></defs><g id="Layer_2" data-name="Layer 2"><g id="Capa_1" data-name="Capa 1"><path class="cls-1" d="M94.15,59.63a3.14,3.14,0,0,0,3.14-3.14V31.38a3.14,3.14,0,0,0-6.28,0V56.49a3.18,3.18,0,0,0,.92,2.22A3.14,3.14,0,0,0,94.15,59.63Z"/><path class="cls-1" d="M182,34.52h-6.28V22a6.28,6.28,0,0,0-6.27-6.28h-44.8a37.54,37.54,0,0,0-61,0H18.83A6.3,6.3,0,0,0,12.55,22V34.52H6.28A6.28,6.28,0,0,0,0,40.8V169.48a6.28,6.28,0,0,0,6.28,6.27h68.1a21.84,21.84,0,0,0,39.54,0H182a6.29,6.29,0,0,0,6.28-6.27V40.8A6.3,6.3,0,0,0,182,34.52Zm-163.2,113H75.32a3.14,3.14,0,0,0,0-6.28H18.83v-9.42H75.32A15.71,15.71,0,0,1,91,147.51v9.41H18.83Zm78.46,0A15.71,15.71,0,0,1,113,131.81h56.5v9.42H113a3.14,3.14,0,0,0,0,6.28h56.5v9.41H97.29ZM169.48,22V125.54H113a21.91,21.91,0,0,0-15.69,6.62v-57A37.55,37.55,0,0,0,128.35,22ZM94.15,6.28A31.39,31.39,0,1,1,62.77,37.66,31.38,31.38,0,0,1,94.15,6.28ZM18.83,22H60A37.54,37.54,0,0,0,91,75.16v57a21.91,21.91,0,0,0-15.69-6.62H18.83ZM182,169.48H111.89l-.1,0a2.57,2.57,0,0,0-.66.13,1.69,1.69,0,0,0-1,.44,1.74,1.74,0,0,0-.8.81,3,3,0,0,0-.37.62s0,.05,0,.08a15.66,15.66,0,0,1-29.54,0,.35.35,0,0,0,0-.08,2.55,2.55,0,0,0-.35-.6,1.68,1.68,0,0,0-.78-.8,2.63,2.63,0,0,0-.49-.33,3,3,0,0,0-.51-.14,3.13,3.13,0,0,0-.69-.14H6.28V40.8h6.27V156.92a6.3,6.3,0,0,0,6.28,6.28H169.48a6.28,6.28,0,0,0,6.27-6.28V40.8H182Z"/><path class="cls-1" d="M125.54,75.32a3.14,3.14,0,0,0,3.14,3.14h31.38a3.14,3.14,0,0,0,0-6.28H128.68a3.14,3.14,0,0,0-3.14,3.14Z"/><path class="cls-1" d="M160.06,87.88H116.12a3.14,3.14,0,1,0,0,6.27h43.94a3.14,3.14,0,1,0,0-6.27Z"/><path class="cls-1" d="M160.06,103.57H116.12a3.14,3.14,0,0,0,0,6.28h43.94a3.14,3.14,0,0,0,0-6.28Z"/><path class="cls-1" d="M28.25,78.46H59.63a3.14,3.14,0,1,0,0-6.28H28.25a3.14,3.14,0,1,0,0,6.28Z"/><path class="cls-1" d="M28.25,94.15H72.18a3.14,3.14,0,1,0,0-6.27H28.25a3.14,3.14,0,1,0,0,6.27Z"/><path class="cls-1" d="M28.25,109.85H72.18a3.14,3.14,0,0,0,0-6.28H28.25a3.14,3.14,0,0,0,0,6.28Z"/><path class="cls-1" d="M94.15,22a3.14,3.14,0,0,0,3.14-3.14V15.69a3.14,3.14,0,1,0-6.28,0v3.14a3.18,3.18,0,0,0,.92,2.22A3.14,3.14,0,0,0,94.15,22Z"/></g></g></svg>