<svg xmlns="http://www.w3.org/2000/svg" viewBox="0 0 198.73 180.52"><defs><style>.cls-1{fill:#010101;}</style></defs><g id="Layer_2" data-name="Layer 2"><g id="Capa_1" data-name="Capa 1"><path class="cls-1" d="M197.58,129l-9.47-9.4a3.89,3.89,0,0,0-5.47,5.52l9.48,9.39a3.81,3.81,0,0,0,2.73,1.13,3.88,3.88,0,0,0,2.73-6.64Z"/><path class="cls-1" d="M173,110h0a3.88,3.88,0,1,0,5.5,0A3.87,3.87,0,0,0,173,110Z"/><path class="cls-1" d="M124.31,152.57a3.92,3.92,0,0,0-3.06-1.12l-1.24.1a28.3,28.3,0,0,1-16.2-3.53l2.5-2.5a60.33,60.33,0,0,0,39.05-17.61L183,90.25A14.61,14.61,0,0,0,176,65.66a14.64,14.64,0,0,0-10.78-20.59,14.6,14.6,0,0,0-11.39-19,14.76,14.76,0,0,0,.73-4.6A14.63,14.63,0,0,0,132.91,8.63l-.38-.4A25.91,25.91,0,0,0,113.63,0H83.14a3.88,3.88,0,0,0-3.88,3.88V9a17.64,17.64,0,0,0,1,5.89A14.63,14.63,0,0,0,60.76,33,14.64,14.64,0,0,0,49.35,52,14.62,14.62,0,0,0,38.58,72.53a14.63,14.63,0,0,0-7.06,24.6l7.75,7.75L1.14,143a3.88,3.88,0,0,0,5.49,5.49L45.12,110A14.62,14.62,0,0,0,67,96.69h.59A14.61,14.61,0,0,0,82.18,82.08c0-.2,0-.39,0-.59h.58A14.6,14.6,0,0,0,97.38,66.88c0-.2,0-.39,0-.59H98a14.61,14.61,0,0,0,11.32-23.89L135,16.64a6.87,6.87,0,0,1,9.71,9.71l-3.8,3.8L127.16,43.93a3.88,3.88,0,1,0,5.49,5.49l13.79-13.78a6.87,6.87,0,1,1,9.71,9.71l-3.8,3.8-10,10a3.88,3.88,0,1,0,5.49,5.49l10-10a6.87,6.87,0,0,1,11.72,4.85,6.87,6.87,0,0,1-2,4.86l-5.22,5.21-4.77,4.77a3.88,3.88,0,1,0,5.49,5.49l4.77-4.77a6.87,6.87,0,1,1,9.71,9.71l-37.66,37.66a52.62,52.62,0,0,1-35.39,15.42,3.82,3.82,0,0,0-2.61,1.14L67.08,173.9a3.88,3.88,0,0,0,5.5,5.48l25.59-25.69a36,36,0,0,0,21.91,5.64l20,20a3.88,3.88,0,1,0,5.49-5.49ZM87,7.76h26.61a18.14,18.14,0,0,1,13.22,5.76l.16.17L103.83,36.87,93.16,26.2a17.73,17.73,0,0,0,3.72.4H97l10.65-.05a3.89,3.89,0,0,0,0-7.77h0l-10.66,0h-.05A9.87,9.87,0,0,1,87,9V7.76ZM57.21,102.13a6.87,6.87,0,0,1-9.71,0L37,91.64a6.87,6.87,0,0,1,9.71-9.71L57.21,92.42A6.87,6.87,0,0,1,57.21,102.13Zm17.21-20a6.79,6.79,0,0,1-2,4.85,6.87,6.87,0,0,1-9.71,0L52.21,76.44,47,71.23a6.89,6.89,0,0,1,0-9.71,6.87,6.87,0,0,1,9.71,0L72.41,77.23h0A6.79,6.79,0,0,1,74.42,82.08Zm15.2-15.2A6.87,6.87,0,0,1,77.9,71.74L58.39,52.23a6.87,6.87,0,0,1,9.71-9.71L77,51.41,87.61,62h0A6.83,6.83,0,0,1,89.62,66.88Zm13.19-10.34a6.89,6.89,0,0,1-9.71,0L73.59,37h0l-3.8-3.79a6.87,6.87,0,0,1,9.71-9.71l23.31,23.31a6.87,6.87,0,0,1,0,9.71Z"/></g></g></svg>