<svg xmlns="http://www.w3.org/2000/svg" xmlns:xlink="http://www.w3.org/1999/xlink" width="48" height="48" viewBox="0 0 48 48">
  <defs>
    <clipPath id="clip-path">
      <rect id="Rectangle_671" data-name="Rectangle 671" width="48" height="48" fill="#fff" stroke="#707070" stroke-width="1"/>
    </clipPath>
  </defs>
  <g id="Mask_Group_11" data-name="Mask Group 11" clip-path="url(#clip-path)">
    <g id="Group_3666" data-name="Group 3666" transform="translate(2 2)">
      <path id="Path_8901" data-name="Path 8901" d="M245.991,209.64a2.472,2.472,0,1,1-2.472-2.472A2.472,2.472,0,0,1,245.991,209.64Z" transform="translate(-214.5 -173.602)" fill="#fff"/>
      <path id="Path_8902" data-name="Path 8902" d="M257.269,206.779H234.53l-11.969,9.542-.031-9.542h-6.844V174.86h41.583Z" transform="translate(-214.5 -173.602)" fill="#de60a1"/>
      <path id="Path_8903" data-name="Path 8903" d="M240.644,202.862v-4.833l5.625-7.1v-3.568l-1.667-1.375h-3.958l-1.458,1.458v2.542h-5.833V186.4l4.75-5.667,6.292-.625,5.75,2.667,1.958,4.375v5.292l-5.042,6.167-1.07,2.125v2.125Z" transform="translate(-214.5 -173.602)" fill="#fff"/>
      <g id="Group_3665" data-name="Group 3665">
        <path id="Path_8904" data-name="Path 8904" d="M256.153,173.6H216.847a2.35,2.35,0,0,0-2.347,2.347v29.48a2.35,2.35,0,0,0,2.347,2.347h4.211a.46.46,0,0,1,.461.461v8.422a.943.943,0,0,0,1.523.744l12.253-9.531a.462.462,0,0,1,.282-.1H237.9a.943.943,0,0,0,0-1.887H235.1a.945.945,0,0,0-.579.2l-10.368,8.063a.464.464,0,0,1-.283.1.461.461,0,0,1-.461-.461v-6.955a.945.945,0,0,0-.943-.944h-5.615a.46.46,0,0,1-.461-.46v-29.48a.46.46,0,0,1,.461-.46h39.306a.46.46,0,0,1,.461.46v29.48a.46.46,0,0,1-.461.46h-7.019a.943.943,0,0,0,0,1.887h7.019a2.35,2.35,0,0,0,2.347-2.347v-29.48A2.35,2.35,0,0,0,256.153,173.6Z" transform="translate(-214.5 -173.602)" fill="#6e337a"/>
        <path id="Path_8905" data-name="Path 8905" d="M249.542,197.041c1.491-1.467,3.347-3.292,3.355-7.066l-.012-.929v-.025a9.245,9.245,0,0,0-2.322-6.972,10.226,10.226,0,0,0-7.617-2.832H242.7a10.224,10.224,0,0,0-7.616,2.831,9.2,9.2,0,0,0-2.323,6.971v.968a.944.944,0,0,0,.943.943h5.615a.944.944,0,0,0,.943-.943V188.8c0-1.382.771-2.083,2.292-2.083h.536c1.521,0,2.292.707,2.292,2.094l.013,1.18c0,.619-.613,1.335-1.632,2.447-1.686,1.836-4,4.351-4,8.779v1.4a.944.944,0,0,0,.943.943h5.616a.945.945,0,0,0,.943-.943v-1.4C247.27,199.278,248.272,198.29,249.542,197.041Zm-1.323-1.345c-1.394,1.372-2.836,2.791-2.836,5.522a.46.46,0,0,1-.46.46h-2.808a.461.461,0,0,1-.461-.46c0-3.691,1.857-5.714,3.5-7.507,1.146-1.249,2.136-2.327,2.127-3.734l-.012-1.176c0-2.448-1.6-3.968-4.179-3.968h-.536c-2.488,0-4.087,1.444-4.174,3.767a.462.462,0,0,1-.461.444H235.1a.461.461,0,0,1-.461-.456,7.16,7.16,0,0,1,1.81-5.234,8.4,8.4,0,0,1,6.254-2.25h.245a8.4,8.4,0,0,1,6.253,2.25,7.337,7.337,0,0,1,1.8,5.629c0,.018,0,.036,0,.048l.012.954C251.005,192.959,249.652,194.288,248.219,195.7Z" transform="translate(-214.5 -173.602)" fill="#6e337a"/>
        <path id="Path_8906" data-name="Path 8906" d="M243.519,205.889a3.751,3.751,0,1,0,3.751,3.751A3.756,3.756,0,0,0,243.519,205.889Zm0,5.616a1.865,1.865,0,1,1,1.864-1.865A1.868,1.868,0,0,1,243.519,211.505Z" transform="translate(-214.5 -173.602)" fill="#6e337a"/>
        <path id="Path_8907" data-name="Path 8907" d="M233.692,194.659h-11.23a.943.943,0,1,0,0,1.886h11.23a.943.943,0,0,0,0-1.886Z" transform="translate(-214.5 -173.602)" fill="#6e337a"/>
        <path id="Path_8908" data-name="Path 8908" d="M222.462,190.93h7.019a.943.943,0,0,0,0-1.886h-7.019a.943.943,0,1,0,0,1.886Z" transform="translate(-214.5 -173.602)" fill="#6e337a"/>
        <path id="Path_8909" data-name="Path 8909" d="M222.462,185.315h7.019a.943.943,0,0,0,0-1.886h-7.019a.943.943,0,1,0,0,1.886Z" transform="translate(-214.5 -173.602)" fill="#6e337a"/>
        <path id="Path_8910" data-name="Path 8910" d="M233.692,200.274h-11.23a.943.943,0,1,0,0,1.886h11.23a.943.943,0,0,0,0-1.886Z" transform="translate(-214.5 -173.602)" fill="#6e337a"/>
      </g>
    </g>
  </g>
</svg>
