<svg xmlns="http://www.w3.org/2000/svg" width="24" height="24" viewBox="0 0 24 24">
  <g id="Group_1653" data-name="Group 1653" transform="translate(-549.639 -470.333)">
    <ellipse id="Ellipse_135" data-name="Ellipse 135" cx="11" cy="11" rx="11" ry="11" transform="translate(550.639 471.333)" fill="none" stroke="#224156" stroke-width="2"/>
    <path id="question" d="M30.73,0a5.731,5.731,0,0,0-5.007,2.5.635.635,0,0,0,.151.9l1.255.9a.727.727,0,0,0,.968-.114A2.854,2.854,0,0,1,30.5,2.829c.9,0,2,.544,2,1.363,0,.619-.542.937-1.425,1.4-1.031.545-2.395,1.224-2.395,2.922v.269a.679.679,0,0,0,.7.659h2.109a.679.679,0,0,0,.7-.659V8.628c0-1.177,3.645-1.226,3.645-4.411C35.836,1.819,33.2,0,30.73,0Zm-.292,10.255a1.905,1.905,0,1,0,2.015,1.9A1.963,1.963,0,0,0,30.439,10.255Z" transform="translate(530.891 475.435)" fill="#224156"/>
  </g>
</svg>
