<svg xmlns="http://www.w3.org/2000/svg" viewBox="0 0 128 128"><defs><style>.cls-1{fill:#179bd7;}.cls-2{fill:#244256;}</style></defs><g id="Layer_2" data-name="Layer 2"><g id="Capa_1" data-name="Capa 1"><path class="cls-1" d="M125.87,0H2.13A2.13,2.13,0,0,0,0,2.13H0V44.8H4.27V4.27H123.73V51.2H49.07v4.27h76.8A2.14,2.14,0,0,0,128,53.33h0V2.13A2.13,2.13,0,0,0,125.87,0Z"/><rect class="cls-1" x="70.4" y="10.67" width="42.67" height="4.27"/><rect class="cls-1" x="76.8" y="23.47" width="42.67" height="4.27"/><rect class="cls-1" x="68.27" y="36.27" width="42.67" height="4.27"/><path class="cls-2" d="M2.13,128H23.47a2.13,2.13,0,0,0,2.13-2.13h0V108a9.81,9.81,0,0,0-3.81-7.72H37.94A9.81,9.81,0,0,0,34.13,108v17.88A2.14,2.14,0,0,0,36.27,128H57.6a2.13,2.13,0,0,0,2.13-2.13h0V108a9.84,9.84,0,0,0-5.35-8.72A10.66,10.66,0,0,0,44.8,81.2V37.56L64.38,27.39A6.88,6.88,0,1,0,59.1,14.68l-.18.08-17.3,9a10.67,10.67,0,1,0-18.1,1.87h-.09a14.66,14.66,0,0,0-13.6,9.47L4.14,54.7A6.83,6.83,0,1,0,17,59.4l2.23-7.1V83.18A10.52,10.52,0,0,0,12.8,81,10.64,10.64,0,0,0,5.36,99.27,9.83,9.83,0,0,0,0,108v17.88A2.13,2.13,0,0,0,2.13,128Zm53.34-4.27H38.4V108A5.59,5.59,0,0,1,44,102.4h5.89A5.6,5.6,0,0,1,55.47,108ZM53.33,91.65a6.4,6.4,0,1,1-6.4-6.4A6.39,6.39,0,0,1,53.33,91.65ZM25.6,19.2A6.4,6.4,0,1,1,32,25.6,6.41,6.41,0,0,1,25.6,19.2ZM12.93,58a2.57,2.57,0,0,1-3.29,1.54l-.27-.12a2.62,2.62,0,0,1-1.19-3.39l5.69-19.63a10.32,10.32,0,0,1,9.56-6.56H38.54a2.22,2.22,0,0,0,1-.24l21.2-11a2.63,2.63,0,0,1,3.36,1.24A2.58,2.58,0,0,1,64.19,22a2.73,2.73,0,0,1-1.61,1.58L41.68,34.37a2.16,2.16,0,0,0-1.15,1.9V83.18A10.52,10.52,0,0,0,37.21,96H34.13V59.73H29.87V96H22.52a10.46,10.46,0,0,0,.94-4.27h0V38.4a2.13,2.13,0,0,0-4.17-.64ZM12.8,85.25a6.4,6.4,0,1,1-6.4,6.4A6.41,6.41,0,0,1,12.8,85.25ZM4.27,108a5.59,5.59,0,0,1,5.59-5.59h5.88A5.59,5.59,0,0,1,21.33,108v15.74H4.27Z"/><path class="cls-2" d="M68.27,108v17.88A2.13,2.13,0,0,0,70.4,128H91.73a2.13,2.13,0,0,0,2.14-2.13h0V108a9.85,9.85,0,0,0-5.36-8.72,10.67,10.67,0,1,0-15.08-.19l.19.19A9.84,9.84,0,0,0,68.27,108Zm12.8-22.74a6.4,6.4,0,1,1-6.4,6.4A6.41,6.41,0,0,1,81.07,85.25ZM72.53,108a5.6,5.6,0,0,1,5.59-5.59H84A5.59,5.59,0,0,1,89.6,108v15.74H72.53Z"/><path class="cls-2" d="M122.64,99.27a10.66,10.66,0,1,0-15.08-.19l.2.19A9.83,9.83,0,0,0,102.4,108v17.88a2.13,2.13,0,0,0,2.13,2.13h21.34a2.13,2.13,0,0,0,2.13-2.13h0V108A9.83,9.83,0,0,0,122.64,99.27Zm-7.44-14a6.4,6.4,0,1,1-6.4,6.4A6.41,6.41,0,0,1,115.2,85.25Zm8.53,38.48H106.67V108a5.59,5.59,0,0,1,5.59-5.59h5.88a5.59,5.59,0,0,1,5.59,5.59Z"/></g></g></svg>