<svg xmlns="http://www.w3.org/2000/svg" viewBox="0 0 168.67 169.06"><defs><style>.cls-1{fill:#244256;}.cls-2{fill:#179bd7;}</style></defs><g id="Layer_2" data-name="Layer 2"><g id="Capa_1" data-name="Capa 1"><path class="cls-1" d="M130.69,128.31A19.07,19.07,0,0,0,116,115.56l-18.23-3.31v-1.41a27.31,27.31,0,0,0,8.13-7.22h5.51a8.19,8.19,0,0,0,8.18-8.18V62.72a35.45,35.45,0,0,0-70.9,0V81.8a10.92,10.92,0,0,0,8.7,10.68,27.35,27.35,0,0,0,13.12,18.36v1.41l-18.23,3.31a19.07,19.07,0,0,0-14.69,12.75l-1.09,3.27-9.29-9.29a2.73,2.73,0,0,1,0-3.85L38,107.67,17.77,87.45,5.59,99.62a19.1,19.1,0,0,0,0,27l36.86,36.85a19.07,19.07,0,0,0,26.9.08l13.29-12.17-4.15-4.13H137Zm-46.55-6.73L76,113.4v-.13a27.18,27.18,0,0,0,16.36,0v.13Zm27.27-23.42h-2.29a26.6,26.6,0,0,0,1.77-5.68,10.68,10.68,0,0,0,3.25-1.29v4.25A2.73,2.73,0,0,1,111.41,98.16Zm0-21a5.4,5.4,0,0,1,0,9.39ZM54.15,81.8a5.42,5.42,0,0,1,2.72-4.69V86.5A5.45,5.45,0,0,1,54.15,81.8Zm2.72-13.63v3.11a11.07,11.07,0,0,0-2.72,1.13V62.72a30,30,0,1,1,60,0v9.69a10.92,10.92,0,0,0-2.73-1.13V68.17h-2.73a30,30,0,0,1-21.35-8.84l-3.19-3.2L81,59.33A30,30,0,0,1,59.6,68.17Zm5.46,19.09V73.52a35.41,35.41,0,0,0,21.81-9.69A35.36,35.36,0,0,0,106,73.52V87.26a21.58,21.58,0,0,1-3,10.9H84.14v5.46H98.52A21.78,21.78,0,0,1,62.33,87.26ZM30.27,107.67l-3,3L14.8,98.12l3-3Zm25.67,55.94a13.52,13.52,0,0,1-9.64-4L9.44,122.76a13.64,13.64,0,0,1,0-19.28l1.5-1.5,12.51,12.51-.1.1a8.18,8.18,0,0,0,0,11.56L42.9,145.71a8.16,8.16,0,0,0,5.79,2.4,8,8,0,0,0,5.68-2.31l.21-.18,12.56,12.56-1.56,1.44A13.57,13.57,0,0,1,55.94,163.61Zm15.23-9.12L58.63,142l3.6-3.26,12.52,12.51ZM73,141.79,62.42,131.17l-11.8,10.68a2.8,2.8,0,0,1-3.86,0l-5.95-6L42.76,130a13.65,13.65,0,0,1,10.49-9.11l19.06-3.46,11.83,11.83L96,117.46,115,120.93a13.65,13.65,0,0,1,10.5,9.1l3.92,11.76Z"/><path class="cls-2" d="M160.49,0H122.32a8.19,8.19,0,0,0-8.18,8.18V30a8.2,8.2,0,0,0,8.18,8.19h7.28l-2.82,16.44,26.31-16.44h7.4A8.2,8.2,0,0,0,168.67,30V8.18A8.19,8.19,0,0,0,160.49,0Zm2.73,30a2.73,2.73,0,0,1-2.73,2.73h-9L134.21,43.54l1.86-10.82H122.32A2.73,2.73,0,0,1,119.59,30V8.18a2.73,2.73,0,0,1,2.73-2.73h38.17a2.74,2.74,0,0,1,2.73,2.73Z"/><rect class="cls-2" x="125.04" y="10.91" width="32.72" height="5.45"/><rect class="cls-2" x="125.04" y="21.81" width="21.81" height="5.45"/><rect class="cls-2" x="152.31" y="21.81" width="5.45" height="5.45"/><path class="cls-2" d="M25.56,67.78,22.75,63.1l-7.39,4.44A70.89,70.89,0,0,1,105.15,16.8l1.61-5.21A76.35,76.35,0,0,0,9.84,67.2L4.68,58.59,0,61.39l9.58,16Z"/><path class="cls-2" d="M141.79,66.77l4.68,2.8,4.77-7.95a70.91,70.91,0,0,1-12,67.55l4.24,3.43a76.38,76.38,0,0,0,13.07-72.35l8,4.8,2.81-4.67-16-9.59Z"/></g></g></svg>