<svg xmlns="http://www.w3.org/2000/svg" viewBox="0 0 247.08 230.97"><defs><style>.cls-1{fill:#179bd7;}.cls-2{fill:#244256;}</style></defs><g id="Layer_2" data-name="Layer 2"><g id="Layer_1-2" data-name="Layer 1"><path class="cls-1" d="M135.72,209.26a46.73,46.73,0,0,0,4.89,4.86,61.78,61.78,0,0,1,5.07,4.94,22.42,22.42,0,0,1,2.93,4.06,14.55,14.55,0,0,1,1.08,2.44c.07.21.14.43.2.65l0,.09h0l0,0h0s0,0,0,0h.29c.75,0,1.5,0,2.26,0,4.49-.07,9.13-.44,13.87-.28a44.91,44.91,0,0,1,7.11.75,25.38,25.38,0,0,1,6.78,2.25l-.09.29a54.9,54.9,0,0,0-6.88-.22c-2.27.07-4.52.27-6.79.52-4.52.48-9.11,1.16-13.89,1.31-.81,0-1.62,0-2.43,0l-.89,0-1.14-.05-2.29-.13c-.08-.78-.14-1.61-.23-2.38l0-.29,0-.28-.06-.27,0-.14,0-.05c0-.15-.07-.3-.11-.46a13.18,13.18,0,0,0-.66-1.81,27.21,27.21,0,0,0-2.08-3.66c-1.23-1.83-2.64-3.67-4-5.63-.66-1-1.31-2-1.88-3a15.58,15.58,0,0,1-1.35-3.34Z"/><path class="cls-1" d="M185.12,229.08a6.26,6.26,0,0,1,1.59-1.35,8.49,8.49,0,0,1,1.93-.84,15.4,15.4,0,0,1,4.14-.55,55.71,55.71,0,0,1,8.13.75c1.32.19,2.63.38,3.9.5l.48,0,.45,0h.91c.64,0,1.28,0,1.93-.08a77,77,0,0,0,7.76-.92c4-.66,8.11-1.48,12.35-1.95a51.13,51.13,0,0,1,6.47-.36l.82,0h.44s0,0,0,0l0,0-.14-.3-.21-.45c-.27-.61-.51-1.22-.73-1.84a38.13,38.13,0,0,1-1.89-12.39c0-2.05.08-4.07.22-6.07.06-1,.14-2,.23-3V200a.2.2,0,0,0,0-.07l0-.09,0-.11v-.06s0-.05,0,0l-.29,0h0l-.29,0-.6,0c-.39,0-.79-.1-1.19-.18a12.24,12.24,0,0,1-4.54-1.81,13.47,13.47,0,0,1-3.3-3.17,20,20,0,0,1-2.18-3.74,38.67,38.67,0,0,1-1.5-3.88l-.32-1-.31-1c-.19-.67-.36-1.32-.53-2-.32-1.32-.59-2.65-.9-3.89a11.85,11.85,0,0,0-1.42-3.46,19.15,19.15,0,0,0-2.45-3c-.92-.95-1.9-1.87-2.89-2.77l.19-.24c1.13.73,2.24,1.49,3.31,2.32a17.9,17.9,0,0,1,3,2.84,11.33,11.33,0,0,1,1.2,1.78,17.49,17.49,0,0,1,.87,1.94c.49,1.31.88,2.57,1.32,3.81.22.62.45,1.25.67,1.84l.38.9.39.9a37.35,37.35,0,0,0,1.69,3.48,13.21,13.21,0,0,0,4.67,5.23,8.84,8.84,0,0,0,3.26,1.08,8.72,8.72,0,0,0,.88.08l.45,0h.73c.64,0,1.31-.1,2-.19l2.06-.26v.31l0,.34,0,.68-.07,1.37-.15,2.58-.12,2.93c-.07,1.94-.09,3.87,0,5.77a35.48,35.48,0,0,0,1.79,10.91c.19.51.39,1,.61,1.5.06.13.11.25.17.37l.09.18,0,.05.05.1.1.18a16,16,0,0,0,.89,1.56c.19.26.34.52.55.8l.64.83,1.45,1.76,2.87,3.49-6.93-1.47A26.51,26.51,0,0,0,237,229l-.78-.06-.39,0-.73,0a51.65,51.65,0,0,0-5.94.18c-4,.33-8.09,1-12.27,1.38a67.69,67.69,0,0,1-8.21.4c-.69,0-1.38,0-2.08-.09-.34,0-.71,0-1.09-.1l-.55-.09-.51-.09c-1.37-.26-2.69-.59-4-.91a63.23,63.23,0,0,0-7.71-1.66,15,15,0,0,0-3.84-.06,6.8,6.8,0,0,0-3.52,1.42Z"/><path class="cls-1" d="M209.9,164.64a21.41,21.41,0,0,0-2.64-7.8c-1.28-2.47-2.75-4.85-4.1-7.39l-.25-.48-.26-.51c-.16-.36-.3-.71-.44-1l-.81-2c-.53-1.31-1.05-2.63-1.56-3.95-1-2.66-2-5.34-2.84-8.05a114.44,114.44,0,0,1-3.19-12q-.63-3.07-1.05-6.19c-.06-.52-.13-1-.18-1.56l0-.38h0v0s0,0,0,0l0,0-.27.08a7.66,7.66,0,0,1-.8.18,8.06,8.06,0,0,1-1.62.1,10.44,10.44,0,0,1-2.91-.56,20.8,20.8,0,0,1-2.41-1c-1.35-.65-2.56-1.32-3.72-1.84a10.44,10.44,0,0,0-3.29-1,5.93,5.93,0,0,0-1.52.07,6.8,6.8,0,0,0-.75.18l-.21.07-.12.07a1.93,1.93,0,0,0-.63.79,14.64,14.64,0,0,0-.63,1.68,12.75,12.75,0,0,1-.94,2.33,6.49,6.49,0,0,1-.9,1.28,5.87,5.87,0,0,1-1.32,1.05,6.76,6.76,0,0,1-2.89.84,8.32,8.32,0,0,1-1.32,0,8.77,8.77,0,0,1-1.33-.16,7.78,7.78,0,0,1-2.63-1,6.74,6.74,0,0,1-2.08-2.07,6.9,6.9,0,0,1-1-2.71,7.34,7.34,0,0,1-.07-1.4c0-.23,0-.46.06-.68v-.12h0v-.09a3.23,3.23,0,0,1,.15-.34l0-.06s0,0,0,0l-.1,0-.23-.08-.26-.06-.07,0h-.12l-.42,0a14.36,14.36,0,0,0-3.47.31c-1.2.23-2.43.56-3.71.87l-1,.22-.63.13-.73.14a15.42,15.42,0,0,1-2.72.21h-1.44l-.12-.19V110l.06-.65a12.33,12.33,0,0,1,.19-1.24,8.29,8.29,0,0,1,1-2.44c.12-.2.24-.39.37-.57l.2-.28.18-.24c.22-.27.45-.54.69-.79a18.08,18.08,0,0,1,1.48-1.43,30.34,30.34,0,0,1,6.77-4.29l.15.27a34.31,34.31,0,0,0-6,5,18.36,18.36,0,0,0-1.21,1.46c-.18.25-.36.51-.52.77a.79.79,0,0,0-.1.16l-.08.14c0,.08-.09.17-.14.26a4.18,4.18,0,0,0-.35,1,2.12,2.12,0,0,0,0,.5,1.93,1.93,0,0,0,0,.24v.09h0l.15,0a6.17,6.17,0,0,0,.62-.09,9.51,9.51,0,0,0,1-.25l1.42-.45c1.19-.39,2.42-.84,3.74-1.2a16.68,16.68,0,0,1,4.18-.67h.92l.41,0a13.86,13.86,0,0,1,1.61.24c.53.12,1,.25,1.55.39l.78.2.18.06.12.06.29.14-.59,1.32c-.19.44-.41.88-.55,1.3,0,.16-.08.31-.12.46l0,.23V110c0,.13,0,.25,0,.37a3.19,3.19,0,0,0,.08.7,3,3,0,0,0,.52,1.21,3.26,3.26,0,0,0,2.24,1.26,4.81,4.81,0,0,0,.77.06,6.85,6.85,0,0,0,.79,0,2.64,2.64,0,0,0,1.12-.35,1.73,1.73,0,0,0,.6-.74,9.67,9.67,0,0,0,.57-1.61,16.06,16.06,0,0,1,.81-2.29,7.76,7.76,0,0,1,.77-1.3,6.11,6.11,0,0,1,1.2-1.18,4.89,4.89,0,0,1,.77-.48,2.67,2.67,0,0,1,.46-.2l.32-.11a10.78,10.78,0,0,1,1.3-.35,10.49,10.49,0,0,1,2.68-.17,14.37,14.37,0,0,1,4.81,1.27c1.42.61,2.69,1.3,3.88,1.87A9.62,9.62,0,0,0,190,109a3.94,3.94,0,0,0,.7,0l.34-.07.28-.09a4.34,4.34,0,0,0,.54-.25,6.21,6.21,0,0,0,1.09-.78l1.21-1.07,2.48-2.21.32,6.07c0,.51.06,1,.11,1.52l.1,1.14.15,1.48c.22,2,.51,4,.85,5.92.68,3.94,1.57,7.87,2.58,11.77.71,2.7,1.47,5.38,2.26,8.07l1.22,4,.63,2,.29.95.18.45.19.48c1,2.56,2.27,5.13,3.25,7.83a29.09,29.09,0,0,1,1.21,4.15,15.11,15.11,0,0,1,.28,4.29Z"/><path class="cls-1" d="M159,91.35a18.28,18.28,0,0,1,4.71-7.24,21.29,21.29,0,0,1,7.62-4.49,30.93,30.93,0,0,1,8.71-1.6,43.14,43.14,0,0,1,8.8.51,50.32,50.32,0,0,1,7.47,1.75q1.84.57,3.63,1.29c.6.24,1.19.49,1.78.76l.11,0,.07,0H202a.14.14,0,0,0,.05-.09s0,0,0,0a.36.36,0,0,0,0-.09.89.89,0,0,0,.08-.17c0-.12.09-.24.13-.36a4.93,4.93,0,0,0,.16-.8,10.06,10.06,0,0,0-.4-3.83A25.73,25.73,0,0,0,200.54,73c-.62-1.37-1.33-2.72-2.09-4.06-2.7-4.78-5.92-9.37-9.09-14.05-1.59-2.35-3.2-4.69-4.66-7.28-.36-.65-.72-1.32-1-2l-.12-.28c0-.07-.06-.14-.1-.22l-.1-.24-.12-.28c-.16-.37-.3-.75-.43-1.13a19.68,19.68,0,0,1-.87-4.57c-.25-3-.06-5.84-.09-8.59a31.34,31.34,0,0,0-.28-4,17.51,17.51,0,0,0-.38-1.94l-.13-.46a4.43,4.43,0,0,0-.14-.44c-.12-.3-.24-.63-.37-.93a16.3,16.3,0,0,0-1.92-3.48,12,12,0,0,0-2.85-2.74,32.18,32.18,0,0,0-3.59-2.1c-1.25-.65-2.52-1.29-3.76-2l.13-.28,4,1.42a29.2,29.2,0,0,1,4,1.7,13.44,13.44,0,0,1,3.55,2.75,17.69,17.69,0,0,1,2.55,3.7c.18.33.34.66.5,1a5.38,5.38,0,0,1,.24.55c.08.19.14.36.21.54a21.57,21.57,0,0,1,.63,2.18,32.09,32.09,0,0,1,.65,4.39c.24,2.89.25,5.72.63,8.34a16.56,16.56,0,0,0,.91,3.7c.11.28.23.56.36.83l.1.21.12.24.12.26.11.2c.27.55.61,1.12,1,1.69,1.42,2.28,3.09,4.55,4.73,6.83a166.09,166.09,0,0,1,9.58,14.24c.81,1.43,1.59,2.9,2.29,4.43a30.62,30.62,0,0,1,1.77,4.85,14.43,14.43,0,0,1,.45,5.63,9.49,9.49,0,0,1-.35,1.54,7.71,7.71,0,0,1-.29.75c0,.13-.11.25-.17.37a.66.66,0,0,1-.09.19l-.13.25a8.5,8.5,0,0,1-1.39,1.82c-.26.26-.54.5-.81.74s-.56.51-.81.72l-1.61-.85-.81-.41-.64-.32-1.6-.74c-1.08-.47-2.18-.91-3.29-1.31a53.76,53.76,0,0,0-6.83-2,44.76,44.76,0,0,0-8.06-1,30.92,30.92,0,0,0-8,.76,20.55,20.55,0,0,0-7.32,3.27,19.43,19.43,0,0,0-5.45,6.14Z"/><path class="cls-1" d="M161.55,9a23.77,23.77,0,0,0-7-3,49.75,49.75,0,0,0-7.48-1.38A119.31,119.31,0,0,0,131.84,4c-5.12.08-10.24.35-15.38.64l-3.87.22-1,0c-.33,0-.65,0-.92.06-.59,0-1.22.11-1.83.18-2.45.29-4.93.75-7.39,1.29a111.35,111.35,0,0,0-14.55,4.29,70.72,70.72,0,0,0-6.91,3l-.82.43-.81.43a17,17,0,0,0-1.46.92,16.74,16.74,0,0,0-2.61,2.31,25.54,25.54,0,0,0-4,6,72.22,72.22,0,0,0-3,7c-.94,2.4-1.85,4.84-2.9,7.24A38.84,38.84,0,0,1,60.63,45l-.27-.16A49.23,49.23,0,0,0,63,37.57c.72-2.46,1.35-5,2-7.47a65.44,65.44,0,0,1,2.46-7.53,27.55,27.55,0,0,1,4.08-7.13,19.93,19.93,0,0,1,3-3,18,18,0,0,1,1.76-1.24c.31-.2.6-.37.88-.53l.88-.51a67.84,67.84,0,0,1,7.21-3.44A97.79,97.79,0,0,1,100.46,2,71.06,71.06,0,0,1,108.35.57c.67-.07,1.33-.13,2-.18.37,0,.7,0,1,0l1,0,3.88-.15c5.19-.17,10.42-.23,15.65,0A89,89,0,0,1,147.54,2.1a44,44,0,0,1,7.56,2.39,21.34,21.34,0,0,1,6.65,4.27Z"/><path class="cls-1" d="M59.41,49.85a44.12,44.12,0,0,1-1,8.63,74.65,74.65,0,0,1-2.32,8.4,120.42,120.42,0,0,1-6.8,16C48,85.47,46.59,88,45.15,90.53l-.55,1-.3.51-.31.47-1.18,1.8c-.78,1.19-1.54,2.39-2.3,3.59-3,4.81-6,9.7-9,14.58s-6.15,9.73-9.48,14.46a135.84,135.84,0,0,1-10.83,13.64q-1.73,1.89-3.55,3.68l-.46.44-.23.22-.13.11-.23.21-.1.08-.08.07-.79.62s0,0,0,0l.07,0,.13.06.3.13.65.28.19.07.39.13.83.28,1.69.54c5.43,1.72,11,3.17,16.54,4.55l-.05.31a141.61,141.61,0,0,1-17.09-2.6l-1.76-.4-.88-.21-.46-.12-.68-.18c-.9-.24-1.81-.51-2.72-.78l-1.39-.42-.7-.21-.36-.11a.86.86,0,0,1-.3-.11c.94-.93,1.93-1.89,2.91-2.87l.37-.37.36-.37.65-.68.32-.34.21-.23.42-.46c1.1-1.22,2.16-2.48,3.21-3.75a169.09,169.09,0,0,0,10-13.73c3.13-4.74,6.13-9.59,9.12-14.46s6-9.77,9.19-14.59c.8-1.2,1.6-2.4,2.43-3.59l1.23-1.76.3-.41.25-.41.56-.89q2.26-3.6,4.39-7.29c2.83-4.92,5.49-9.93,7.82-15.1,1.16-2.59,2.23-5.21,3.15-7.9a57.48,57.48,0,0,0,2.25-8.23Z"/><path class="cls-1" d="M34.32,151.5A4.53,4.53,0,0,1,36,150.27a7.47,7.47,0,0,1,2.07-.51,17.16,17.16,0,0,1,4.18.12,61.29,61.29,0,0,1,8,1.83l1.93.52.95.24.46.11.23,0,.12,0h0c1.3.19,2.63.38,4,.54,2.63.34,5.28.62,7.94.86,5.31.48,10.64.83,16,1.22,2.68.2,5.37.4,8,.63l2,.18,2,.17c1.34.11,2.69.23,4.05.37a75.63,75.63,0,0,1,8.2,1.25,36.88,36.88,0,0,1,8.11,2.67,29.51,29.51,0,0,1,7.18,4.79,38.1,38.1,0,0,1,5.57,6.37l.59.87.58.89a19.8,19.8,0,0,1,1,2,28.86,28.86,0,0,1,1.47,4,51.11,51.11,0,0,1,1.45,8.15c.3,2.69.53,5.34,1,7.93a26,26,0,0,0,2.51,7.51l-.26.17a23.62,23.62,0,0,1-3.66-7.32c-.83-2.62-1.36-5.3-1.92-7.92a53.33,53.33,0,0,0-2-7.58,25.72,25.72,0,0,0-1.56-3.46,16.47,16.47,0,0,0-.94-1.54l-.57-.76-.59-.76a36.92,36.92,0,0,0-5.32-5.49,26.89,26.89,0,0,0-6.34-3.89c-4.57-2-9.73-2.73-15-3.25-1.31-.13-2.64-.25-4-.36l-1-.08-1-.09-2-.19-8-.74c-5.36-.51-10.74-1.08-16.1-1.89-2.68-.41-5.36-.87-8-1.43-1.34-.28-2.65-.58-4-.91l-.19-.05-.13,0-.25-.08-.51-.17-1-.35-1.9-.73A77.2,77.2,0,0,0,42,151.44a18,18,0,0,0-3.82-.68,5.24,5.24,0,0,0-3.61,1Z"/><path class="cls-1" d="M226.15,100.25a8.28,8.28,0,0,1-2.33-.17,19,19,0,0,1-2.22-.63l-.21-.07-.3-.13-.63-.28-1.34-.6-3.06-1.31.08-.25,0-.11,0-.1,0-.1.09-.14.2-.3c.3-.43.59-.85.9-1.28a8.2,8.2,0,0,1,1.15-1.23,8.85,8.85,0,0,1,1.57-1.08,9.63,9.63,0,0,1,1.94-.75,10.47,10.47,0,0,1,5.42,0,11.83,11.83,0,0,1,4.64,2.43,10.37,10.37,0,0,1,1.79,1.95c.1.14.33.47.49.74a7.9,7.9,0,0,1,.47.85,9.46,9.46,0,0,1,.63,1.69,8.87,8.87,0,0,1,.27,1.89c0,.58,0,1.15,0,1.73l-.11,0a.22.22,0,0,1-.13,0l-.31,0-.6.06a8.93,8.93,0,0,1-1.15,0,6.05,6.05,0,0,1-2.83-.88c-.43-.25-.83-.55-1.19-.81s-.56-.46-.87-.68l.1-.29a7.23,7.23,0,0,1,1.15.13c.31,0,.56.06.79.07a1.7,1.7,0,0,0,1.05-.21.83.83,0,0,0,.24-.21l.09-.12,0-.06s0,0,0-.05l0-.06a3.27,3.27,0,0,0-.71-1,1.21,1.21,0,0,0-.23-.19l-.1-.06c-.05,0,0,0-.16-.13a9,9,0,0,0-1.33-1.07,9.63,9.63,0,0,0-3.12-1.36,8.51,8.51,0,0,0-1.65-.23c-.27,0-.54,0-.8,0l-.39,0-.19,0-.1,0h-.07c-.07,0-.27-.11-.74.08l-.08,0s0,0,0,0h0s0,0,0,.06a.74.74,0,0,0,.09.32,1.62,1.62,0,0,0,.14.24l.1.15s0,0,.06.08l.16.14a34.8,34.8,0,0,0,3.37,2.72Z"/><path class="cls-1" d="M189,14a6.62,6.62,0,0,0-1.34,1.16,7.06,7.06,0,0,0-.95,1.3,5.91,5.91,0,0,0-.58,1.34,2.53,2.53,0,0,0-.1,1.08.93.93,0,0,0,.15.33,1.73,1.73,0,0,0,.2.15,3.78,3.78,0,0,0,.92.41l.31.1-1,1.79a2.81,2.81,0,0,0,.08-1.35c0-.15,0-.33-.07-.51l0-.14h0l.05,0,.45-.16c.36-.13.77-.31,1.18-.49,1-.46,2.06-1,3.11-1.49L194.55,16l.39-.2.2-.1.1-.05,0,0h0a2,2,0,0,0,.35-.07,4.73,4.73,0,0,0,1-.41l.35-.21.17-.14,0,0v0a.13.13,0,0,0,0-.06,1.07,1.07,0,0,0-.32-.5,2.64,2.64,0,0,1-.61-.78l.22-.22a5.22,5.22,0,0,0,.81.21c.3,0,.61.11.91.18a6,6,0,0,1,1.65.63l.07.12,0,.06v.07a2.46,2.46,0,0,1-.07.29,5.13,5.13,0,0,1-1.49,2.54c-.33.34-.7.68-1.1,1l-.07.06,0,0-.09.08-.17.17-.36.32a29.16,29.16,0,0,1-3,2.33,27.75,27.75,0,0,1-3.32,1.94,16.07,16.07,0,0,1-1.55.65,7.22,7.22,0,0,1-.95.29,4.54,4.54,0,0,1-.69.11,4.77,4.77,0,0,1-.56,0,2.91,2.91,0,0,1-1.05-.29l.22.1a8,8,0,0,1-1.37-.73A5.49,5.49,0,0,1,183,22.09a4.46,4.46,0,0,1-.81-1.75,4.36,4.36,0,0,1,0-1.83,5.32,5.32,0,0,1,1.06-2.34,6.86,6.86,0,0,1,3.62-2.41,4.54,4.54,0,0,1,2.07-.07Z"/><path class="cls-1" d="M199.46,19a1.51,1.51,0,0,0-.7,0,4.57,4.57,0,0,0-.71.17,10,10,0,0,0-1.36.57,11.22,11.22,0,0,0-2.41,1.6,7,7,0,0,0-.92,1,3.23,3.23,0,0,0-.31.52l-.06.14-.05.11-.07.12-.17.33a12.93,12.93,0,0,0-1.07,2.59c0,.11,0,.21-.06.3a1.24,1.24,0,0,0,0,.18,1.73,1.73,0,0,0,0,.32.67.67,0,0,0,.37.45,1,1,0,0,0,.28.09l.46.09c.42.07.89.11,1.38.15,1,.08,2.06.15,3.17.33a14.36,14.36,0,0,1,1.72.37l.88.3.11.05h.14l.07,0h.11c.17,0,.39-.11.63-.19l.8-.27a9,9,0,0,1,1.06-.27,5.58,5.58,0,0,1,.8-.06,3.06,3.06,0,0,1,1.23.29,2.66,2.66,0,0,1,.71.49,3.08,3.08,0,0,1,.51.66,3.19,3.19,0,0,1,.36,1.14,5,5,0,0,1,0,1.42c-.06.39-.13.72-.21,1,0,.16-.09.31-.13.47s-.1.33-.1.35a4.18,4.18,0,0,1-.8,1.55,4.24,4.24,0,0,1-1.34,1.06,5.64,5.64,0,0,1-1.27.46,16.8,16.8,0,0,1-1.85.31,2,2,0,0,0-.41.09,3.9,3.9,0,0,0-.49-1.1c-.14-.21-.23-.25-.2-.23l1.36.72-.18.26a28.9,28.9,0,0,1-4.16,4.36,6.1,6.1,0,0,0-1.27,1.59,3.43,3.43,0,0,0-.36,1.65,9.22,9.22,0,0,0,.41,2.38c.07.21.12.38.18.52s.15.37.24.55a12.35,12.35,0,0,0,.62,1.11A33.5,33.5,0,0,0,200,53.45a44.65,44.65,0,0,1,4.15,4.91c.32.47.63,1,.91,1.47.14.25.28.51.41.78l.33.73,1.25,2.82c.83,1.86,1.64,3.71,2.57,5.39a12.07,12.07,0,0,0,1.54,2.24,3.36,3.36,0,0,0,.84.69,1.37,1.37,0,0,0,.8.2,3.6,3.6,0,0,0,2-1.16,16.45,16.45,0,0,0,1.85-2.24,56.62,56.62,0,0,0,3.15-5.23l.29.12A38.53,38.53,0,0,1,217.94,70a15.41,15.41,0,0,1-1.67,2.78,6.93,6.93,0,0,1-1.22,1.27,4.45,4.45,0,0,1-1.8.92A3.85,3.85,0,0,1,211,74.8a5.84,5.84,0,0,1-1.68-1,13.8,13.8,0,0,1-2.26-2.58,55.08,55.08,0,0,1-3.23-5.44L202.42,63l-.36-.64a6.42,6.42,0,0,0-.34-.56,13,13,0,0,0-.78-1.1,47.62,47.62,0,0,0-4-4.28,33.49,33.49,0,0,1-4.32-4.93,13.77,13.77,0,0,1-.92-1.55c-.14-.27-.28-.56-.4-.85s-.24-.65-.33-.93a13,13,0,0,1-.64-3.65,9,9,0,0,1,.17-1.91,7.85,7.85,0,0,1,.66-1.89,9.09,9.09,0,0,1,1-1.59,13.84,13.84,0,0,1,1.15-1.23c.76-.73,1.47-1.33,2.09-1.91A13.72,13.72,0,0,0,197,34.24l-.18.31a3,3,0,0,1,1-1.16,3.39,3.39,0,0,1,.94-.45,5.84,5.84,0,0,1,1.22-.25c.65-.08,1.12-.11,1.45-.18a1.39,1.39,0,0,0,.3-.08h0l0,.06.06.08.14.16s0,0-.11-.07l-.07,0-.1,0,0,0h0l.25-.76c.07-.21.12-.42.16-.58s0-.16,0-.21v0h.11l.33,0a2.5,2.5,0,0,0,.85-.23c.15-.08.13-.13.07,0a2.39,2.39,0,0,0-.15.81V32h-.06a2.77,2.77,0,0,0-.56.1l-.8.2a9.86,9.86,0,0,1-1,.22l-.15,0-.19,0a2.34,2.34,0,0,1-.38,0,3.14,3.14,0,0,1-.75,0,3,3,0,0,1-.67-.17,2.3,2.3,0,0,1-.32-.15l-.2-.1a5.55,5.55,0,0,0-.56-.24,12.46,12.46,0,0,0-1.26-.4c-.89-.22-1.87-.38-2.91-.58-.52-.1-1.07-.21-1.65-.38a4.43,4.43,0,0,1-.44-.14,5.66,5.66,0,0,1-.56-.21,4.08,4.08,0,0,1-1.06-.65,3,3,0,0,1-1.09-2.08,4,4,0,0,1,.08-1.2,4.74,4.74,0,0,1,.15-.57c0-.16.11-.3.16-.44a14.58,14.58,0,0,1,1.7-2.88l.24-.32,0,0,0-.07.13-.19A5.33,5.33,0,0,1,192,21,7.87,7.87,0,0,1,193.34,20a11.39,11.39,0,0,1,3-1.26,9.45,9.45,0,0,1,1.59-.28,5.59,5.59,0,0,1,.82,0,1.88,1.88,0,0,1,.8.22Z"/><path class="cls-1" d="M203.3,19.29a25.12,25.12,0,0,1,6.23,2.86,41.5,41.5,0,0,1,5.5,4.09A59.16,59.16,0,0,1,219.88,31c.76.84,1.5,1.69,2.22,2.56l1.06,1.3c.36.45.72.91,1.06,1.38a26.61,26.61,0,0,1,3.55,6.24,16.6,16.6,0,0,1,.95,3.65,14.57,14.57,0,0,1,0,3.79,19.42,19.42,0,0,1-2.31,6.75,38.35,38.35,0,0,1-3.81,5.63l-.28-.14c.64-2.17,1.37-4.27,1.92-6.36a21.83,21.83,0,0,0,.9-6.1,13.4,13.4,0,0,0-1.37-5.54A29.33,29.33,0,0,0,220.52,39c-.32-.42-.64-.83-1-1.25l-1-1.29-2-2.54c-1.37-1.68-2.75-3.35-4.16-5s-2.86-3.25-4.37-4.82-3.08-3.08-4.77-4.58Z"/><path class="cls-2" d="M216.34,189.59a.56.56,0,0,0-.62.08,6.58,6.58,0,0,1-4.29,2c-1.36,0-2.68-.63-4.32-2-3.56-3-7.06-3-11.15-.13-.29.2-.29.2-.24,6,0,2.3,0,5.15,0,5.55a.57.57,0,0,0,.4.69.58.58,0,0,0,.52-.13,8.4,8.4,0,0,1,5-1.75,7.62,7.62,0,0,1,3.38.82,8.41,8.41,0,0,0,3.7,1c6.79,0,7.91-11.11,7.95-11.58a.56.56,0,0,0-.29-.57Z"/><rect class="cls-2" x="192.3" y="186.07" width="2.85" height="28.31" rx="1.16"/><path class="cls-2" d="M180,168.17a.56.56,0,0,0-.63.08,6.54,6.54,0,0,1-4.28,2c-1.36,0-2.68-.63-4.32-2.05-3.57-3-7.07-3-11.16-.13-.28.2-.28.2-.23,6.05,0,2.3,0,5.15,0,5.55a.56.56,0,0,0,.91.56,8.45,8.45,0,0,1,5-1.75,7.58,7.58,0,0,1,3.37.82,8.41,8.41,0,0,0,3.7,1c6.79,0,7.91-11.11,8-11.58a.57.57,0,0,0-.29-.57Z"/><rect class="cls-2" x="155.97" y="164.64" width="2.85" height="28.31" rx="1.16"/><path class="cls-2" d="M161.46,130a.56.56,0,0,0-.63.09,6.61,6.61,0,0,1-4.28,2c-1.36,0-2.68-.63-4.33-2.06-3.56-3-7.06-3-11.15-.12-.29.2-.29.2-.24,6.05,0,2.3,0,5.15,0,5.54a.57.57,0,0,0,.41.69.56.56,0,0,0,.51-.12,8.44,8.44,0,0,1,5-1.76,7.61,7.61,0,0,1,3.37.82,8.28,8.28,0,0,0,3.7,1c6.79,0,7.91-11.11,8-11.58a.57.57,0,0,0-.28-.57Z"/><rect class="cls-2" x="137.41" y="126.48" width="2.85" height="28.31" rx="1.16"/><path class="cls-2" d="M94.43,100.84a.55.55,0,0,0-.63.08,6.54,6.54,0,0,1-4.28,2c-1.36,0-2.68-.63-4.32-2-3.56-3-7.06-3-11.15-.13-.29.2-.29.2-.24,6,0,2.3,0,5.15,0,5.55a.55.55,0,0,0,.4.68.58.58,0,0,0,.52-.12,8.4,8.4,0,0,1,5-1.75,7.36,7.36,0,0,1,3.38.82,8.37,8.37,0,0,0,3.7,1c6.79,0,7.91-11.11,8-11.59a.54.54,0,0,0-.29-.56Z"/><rect class="cls-2" x="70.39" y="97.31" width="2.85" height="28.31" rx="1.16"/><path class="cls-2" d="M149,62.05a.56.56,0,0,0-.63.08,6.54,6.54,0,0,1-4.28,2c-1.36,0-2.68-.63-4.32-2-3.57-3-7.07-3-11.16-.13-.28.2-.28.2-.23,6.05,0,2.3,0,5.15,0,5.55a.55.55,0,0,0,.4.68.53.53,0,0,0,.51-.12,8.45,8.45,0,0,1,5-1.75,7.45,7.45,0,0,1,3.37.82,8.41,8.41,0,0,0,3.71,1c6.78,0,7.9-11.11,8-11.58a.57.57,0,0,0-.29-.57Z"/><rect class="cls-2" x="124.93" y="58.52" width="2.85" height="28.31" rx="1.16"/><path class="cls-2" d="M118.77,27.77a.58.58,0,0,0-.63.08,6.54,6.54,0,0,1-4.28,2c-1.36,0-2.68-.63-4.32-2.05-3.56-3-7.06-3-11.16-.13-.28.21-.28.21-.23,6.06,0,2.29,0,5.14,0,5.54a.56.56,0,0,0,.91.56,8.45,8.45,0,0,1,5-1.75,7.58,7.58,0,0,1,3.37.82,8.45,8.45,0,0,0,3.71,1c6.79,0,7.9-11.11,8-11.58a.56.56,0,0,0-.29-.57Z"/><rect class="cls-2" x="94.73" y="24.25" width="2.85" height="28.31" rx="1.16"/></g></g></svg>