<svg xmlns="http://www.w3.org/2000/svg" viewBox="0 0 131.74 143.72"><defs><style>.cls-1{fill:#244256;}.cls-2{fill:#179bd7;}</style></defs><g id="Layer_2" data-name="Layer 2"><g id="Capa_1" data-name="Capa 1"><path class="cls-1" d="M18,18H47.91v6H18Z"/><path class="cls-1" d="M18,29.94h6v6H18Z"/><path class="cls-1" d="M29.94,29.94h6v6h-6Z"/><path class="cls-1" d="M6,80.84H0V9A9,9,0,0,1,9,0H86.83A3,3,0,0,1,89,.88l24,24a3,3,0,0,1,.88,2.12V56.89h-6V28.19L85.59,6H9A3,3,0,0,0,6,9Z"/><path class="cls-1" d="M21,143.72H9a9,9,0,0,1-9-9v-24H6v24a3,3,0,0,0,3,3H21Z"/><path class="cls-1" d="M98.81,29.94h-6a9,9,0,0,1-9-9V3h6V21a3,3,0,0,0,3,3h6Z"/><path class="cls-2" d="M125.75,143.72H83.84a6,6,0,0,1-6-6v-9a3,3,0,0,1,3-3h47.91a3,3,0,0,1,3,3v9A6,6,0,0,1,125.75,143.72Zm-41.91-12v6h41.91v-6Z"/><path class="cls-2" d="M128.75,131.74H80.84a3,3,0,0,1-3-3v-9a6,6,0,0,1,6-6h41.91a6,6,0,0,1,6,6v9A3,3,0,0,1,128.75,131.74Zm-44.91-6h41.91v-6H83.84Z"/><path class="cls-2" d="M125.75,119.77H83.84a6,6,0,0,1-6-6v-9a3,3,0,0,1,3-3h47.91a3,3,0,0,1,3,3v9A6,6,0,0,1,125.75,119.77Zm-41.91-12v6h41.91v-6Z"/><path class="cls-2" d="M77.85,143.72H35.93a6,6,0,0,1-6-6v-9a3,3,0,0,1,3-3h47.9a3,3,0,0,1,3,3v9A6,6,0,0,1,77.85,143.72Zm-41.92-12v6H77.85v-6Z"/><path class="cls-2" d="M80.84,131.74H32.94a3,3,0,0,1-3-3v-9a6,6,0,0,1,6-6H77.85a6,6,0,0,1,6,6v9A3,3,0,0,1,80.84,131.74Zm-44.91-6H77.85v-6H35.93Z"/><path class="cls-2" d="M77.85,119.77H35.93a6,6,0,0,1-6-6v-9a3,3,0,0,1,3-3h47.9a3,3,0,0,1,3,3v9A6,6,0,0,1,77.85,119.77Zm-41.92-12v6H77.85v-6Z"/><path class="cls-2" d="M125.75,107.79H83.84a6,6,0,0,1-6-6v-9a3,3,0,0,1,3-3h47.91a3,3,0,0,1,3,3v9A6,6,0,0,1,125.75,107.79Zm-41.91-12v6h41.91v-6Z"/><path class="cls-2" d="M128.75,95.81H80.84a3,3,0,0,1-3-3v-9a6,6,0,0,1,6-6h41.91a6,6,0,0,1,6,6v9A3,3,0,0,1,128.75,95.81Zm-44.91-6h41.91v-6H83.84Z"/><path class="cls-1" d="M89.82,62.88h-6v-18h-21v-6H86.83a3,3,0,0,1,3,3Z"/><path class="cls-1" d="M5.11,100.92.88,96.69,33.81,63.75a3,3,0,0,1,2.12-.87H61.64L84.71,39.8,89,44,65,68a3,3,0,0,1-2.11.88H37.17Z"/></g></g></svg>